<svg xmlns="http://www.w3.org/2000/svg" data-name="Layer 1" viewBox="0 0 512 512" id="Skincare"><path fill="#66d6ff" d="M51.34 400.963a62.526 62.526 0 0 1 44.833 44.833 62.526 62.526 0 0 1 44.833-44.833 62.526 62.526 0 0 1-44.833-44.833 62.526 62.526 0 0 1-44.833 44.833zm82.79 72.827a42.83 42.83 0 0 1 30.71 30.71 42.83 42.83 0 0 1 30.71-30.71 42.83 42.83 0 0 1-30.71-30.71 42.83 42.83 0 0 1-30.71 30.71z" class="colorffe966 svgShape"></path><ellipse cx="330.818" cy="87.396" fill="#555555" rx="80.35" ry="79.896" class="color4a4f60 svgShape"></ellipse><path fill="#444444" d="M330.818 7.5a81.151 81.151 0 0 0-15 1.411 79.805 79.805 0 0 1 0 156.97 81.151 81.151 0 0 0 15 1.411c44.376 0 80.35-35.77 80.35-79.896 0-44.125-35.974-79.896-80.35-79.896Z" class="color3b3f4d svgShape"></path><path fill="#555555" d="M460.66 279.18c0 75.551-47.123 127.007-50.256 130.119-7.59 7.539-50.71 50.373-110.564 49.063-82.094-1.797-160.82-85.876-160.82-179.183 0-98.96 72.002-179.182 160.82-179.182s160.82 80.222 160.82 179.182Z" class="color4a4f60 svgShape"></path><path fill="#444444" d="M299.84 99.997a146.177 146.177 0 0 0-15 .782c81.784 8.43 145.82 85.077 145.82 178.4 0 75.552-47.123 127.008-50.256 130.12-6.819 6.773-42.321 42.03-92.869 48.172 4.087.494 8.192.8 12.305.89 59.854 1.31 102.975-41.523 110.564-49.062 3.133-3.112 50.256-54.568 50.256-130.12 0-98.96-72.002-179.182-160.82-179.182Z" class="color3b3f4d svgShape"></path><path fill="#87ddfd" d="M184.628 257.552a3.698 3.698 0 0 1 5.15-3.457c12.791 5.49 30.561 10.71 51.154 8.932 25.186-2.174 31.905-12.856 53.683-10.853 27.055 2.49 49.327 21.98 53.295 25.451 10.629 9.301 23.396 24.472 45.68 28.141.153.026.313.051.313.051a49.36 49.36 0 0 0 18.958.677 3.698 3.698 0 0 1 4.208 3.1 208.158 208.158 0 0 1-.63 69.469c-2.21 12.238-11.012 76.744-59.417 107.067q-5.84 3.658-11.66 7.316c-72.117 45.386-157.695-59.438-158.828-125.223l-1.906-110.671Z" class="colorffcd85 svgShape"></path><path fill="#4ecfff" d="M417.07 309.594a3.698 3.698 0 0 0-4.209-3.1 49.36 49.36 0 0 1-18.958-.677l-.313-.05c-22.284-3.67-35.051-18.84-45.68-28.142-3.968-3.471-26.24-22.962-53.295-25.45a49.788 49.788 0 0 0-19.43 1.84c22.115 5.586 39.288 20.603 42.725 23.61 10.629 9.301 23.397 24.472 45.68 28.142l.313.05a49.36 49.36 0 0 0 18.958.677 3.698 3.698 0 0 1 4.209 3.1 208.159 208.159 0 0 1-.631 69.469c-2.21 12.238-11.012 76.744-59.417 107.067q-5.84 3.658-11.66 7.317a71.417 71.417 0 0 1-22.511 9.405 68.945 68.945 0 0 0 52.51-9.405q5.815-3.66 11.661-7.317c48.405-30.323 57.208-94.83 59.417-107.067a208.159 208.159 0 0 0 .63-69.47Z" class="colorffb74e svgShape"></path><path fill="#70d8ff" d="M210.932 263.027a88.45 88.45 0 0 0 6.669-.826 115.126 115.126 0 0 1-27.824-8.106 3.698 3.698 0 0 0-5.149 3.457l.072 4.163a98.393 98.393 0 0 0 26.232 1.312Z" class="colorffc570 svgShape"></path><path fill="#030303" d="M360.69 318.688a36.355 36.355 0 0 1-15.842 5.223 37.181 37.181 0 0 1-21.985-5.249 7.5 7.5 0 0 0-7.747 12.845 52.665 52.665 0 0 0 26.813 7.526c1.358 0 2.75-.055 4.171-.175a51.424 51.424 0 0 0 22.417-7.376 7.5 7.5 0 1 0-7.828-12.794Zm44.596-184.902a86.308 86.308 0 0 0 13.382-46.39c0-48.19-39.41-87.396-87.85-87.396s-87.85 39.206-87.85 87.396a87.56 87.56 0 0 0 1.397 15.532c-65.636 25.486-112.844 94.864-112.844 176.252 0 49.932 21.491 99.65 59 136.669 14.95 34.265 42.824 67.47 73.65 84.147 14.865 8.042 29.63 12.063 43.905 12.063a76.576 76.576 0 0 0 41.28-12.265q5.808-3.655 11.648-7.309c25.445-15.94 43.857-42.159 54.962-78.153 4.059-4.297 52.194-57.112 52.194-135.152 0-58.699-24.561-111.147-62.874-145.394ZM330.818 15c40.17 0 72.85 32.477 72.85 72.396a71.43 71.43 0 0 1-10.105 36.792c-26.805-20.003-59.056-31.69-93.723-31.69a152.452 152.452 0 0 0-41.068 5.63 72.664 72.664 0 0 1-.803-10.732c0-39.92 32.68-72.396 72.85-72.396Zm78.24 362.73c-.112.62-.24 1.37-.39 2.24-8.258 48.275-26.974 81.854-55.627 99.803q-5.846 3.663-11.674 7.326c-26.56 16.714-52.758 9.065-70.058-.296-27.984-15.14-53.881-46.352-67.429-77.844q-.102-.275-.226-.543c-5.896-13.852-9.404-27.74-9.621-40.322l-1.807-104.923c16.54 6.267 33.117 8.73 49.351 7.329 12.456-1.076 20.715-4.057 28.002-6.686 7.91-2.854 14.16-5.114 24.349-4.171 22.239 2.045 41.705 17.204 49.043 23.628 1.607 1.406 3.307 2.992 5.107 4.672 9.845 9.188 23.329 21.77 44.283 25.222l.102.018a56.81 56.81 0 0 0 13.41 1.418 57.25 57.25 0 0 0 4.323-.223 200.419 200.419 0 0 1-1.138 63.352Zm15.142.416a216.119 216.119 0 0 0 .279-69.714 11.196 11.196 0 0 0-12.794-9.345 41.872 41.872 0 0 1-16.081-.574q-.27-.063-.541-.106l-.254-.04c-16.486-2.716-27.117-12.637-36.496-21.39-1.891-1.764-3.677-3.431-5.463-4.995-10.481-9.173-31.894-24.917-57.548-27.277-13.517-1.242-22.31 1.93-30.814 5-6.736 2.43-13.7 4.943-24.2 5.85-15.523 1.34-31.518-1.471-47.552-8.352a11.199 11.199 0 0 0-15.607 10.478l1.906 110.67a97.015 97.015 0 0 0 1.04 12.25c-21.576-30.154-33.554-65.754-33.554-101.421 0-94.666 68.779-171.683 153.32-171.683S453.16 184.514 453.16 279.18c0 30.308-7.76 60.145-23.063 88.68a209.521 209.521 0 0 1-5.897 10.286Zm-275.694 22.818a7.5 7.5 0 0 0-5.617-7.26 55.059 55.059 0 0 1-39.456-39.455 7.5 7.5 0 0 0-14.52 0 55.059 55.059 0 0 1-39.455 39.455 7.5 7.5 0 0 0 0 14.52 55.058 55.058 0 0 1 39.456 39.455 7.5 7.5 0 0 0 14.52 0 55.058 55.058 0 0 1 39.455-39.455 7.5 7.5 0 0 0 5.617-7.26Zm-52.333 25.31a70.167 70.167 0 0 0-25.31-25.31 70.167 70.167 0 0 0 25.31-25.31 70.167 70.167 0 0 0 25.31 25.31 70.167 70.167 0 0 0-25.31 25.31Zm233.873-6.133a7.498 7.498 0 0 0-10.56.986 23.127 23.127 0 0 1-13.519 8.01c-12.19 2.048-21.322-8.082-21.413-8.186a7.5 7.5 0 0 0-11.248 9.925c1.34 1.518 12.49 13.55 29.241 13.55a35.587 35.587 0 0 0 5.903-.496 37.775 37.775 0 0 0 22.584-13.229 7.5 7.5 0 0 0-.988-10.56Zm-51.705-98.97a7.5 7.5 0 0 0-10.311-2.483 36.355 36.355 0 0 1-15.842 5.223 37.176 37.176 0 0 1-21.984-5.249 7.5 7.5 0 0 0-7.747 12.845 52.665 52.665 0 0 0 26.813 7.526c1.357 0 2.749-.055 4.17-.175a51.424 51.424 0 0 0 22.417-7.376 7.5 7.5 0 0 0 2.484-10.311Zm-80.908 145.36a35.35 35.35 0 0 1-25.333-25.333 7.5 7.5 0 0 0-14.52 0 35.35 35.35 0 0 1-25.332 25.332 7.5 7.5 0 0 0 0 14.52 35.35 35.35 0 0 1 25.333 25.333 7.5 7.5 0 0 0 14.52-.001 35.35 35.35 0 0 1 25.332-25.332 7.5 7.5 0 0 0 0-14.52Zm-32.593 20.188a50.44 50.44 0 0 0-12.928-12.929 50.44 50.44 0 0 0 12.928-12.929 50.456 50.456 0 0 0 12.929 12.929 50.456 50.456 0 0 0-12.929 12.929Z" class="color313440 svgShape"></path></svg>