<svg xmlns="http://www.w3.org/2000/svg" viewBox="0 0 69 69" id="RespiratorySystem"><path fill="#0fbeff" d="M14.784 65.757c.637-1.573 1.182-3.188 1.555-4.881.362-1.62.899-5.842 1.415-7.42.32-.98.764-1.908 1.157-2.899.3.186.423.217.454.29 1.797 4.004 3.272 10.66 2.666 14.91h24.908c-.846-4.475 1.149-11.064 2.657-15.096.186-.031.372-.052.548-.073.599 1.733 1.332 6.07 1.745 7.833a52.153 52.153 0 0 0 2.345 7.336h7.852c-.634-1.415-1.208-2.844-1.573-4.324-1.394-5.611-2.582-11.315-3.202-17.06-.609-5.664-3.387-9.191-8.5-11.203a6.795 6.795 0 0 1-.97-.433c-1.911-1.021-3.874-1.96-5.712-3.105-1.425-.887-2.603-2.104-2.82-3.92-.186-1.536.589-2.702 1.932-2.67 1.724.04 3.119.236 3.594-2.208.227-1.145.919-2.084.02-3.25 1.044-.69 1.725-1.567.734-2.609-1.178-1.217-1.25-2.6-1.26-4.167-.01-1.104-.351-2.31-.878-3.3-1.9-3.6-7.395-5.261-11.599-3.611-4.906 1.919-6.724 6.22-4.617 11.047.445 1.011 1.033 1.96 1.601 2.909 2.748 4.672 1.58 9.593-2.964 12.419-.816.505-1.663.949-2.52 1.382-1.89.949-3.821 1.826-5.701 2.806-3.109 1.62-5.092 4.064-5.536 7.633-.196 1.547-.527 3.084-.682 4.631-.646 6.589-2.038 12.959-4.519 19.033h7.87z" class="colorffca0f svgShape"></path><path fill="#91e1ff" d="M42.956 6.737c-2.54-1.9-6.4-2.51-9.55-1.28-4.9 1.91-6.72 6.22-4.61 11.04.44 1.01 1.03 1.96 1.6 2.91 2.74 4.67 1.58 9.59-2.97 12.42-.81.51-1.66.95-2.52 1.38-1.89.95-3.82 1.83-5.7 2.81-3.11 1.62-5.09 4.06-5.53 7.63-.2 1.55-.53 3.09-.69 4.63-.59 6.03-1.81 11.87-3.91 17.48h-2.16c2.48-6.07 3.87-12.44 4.52-19.03.15-1.55.48-3.09.68-4.63.44-3.57 2.43-6.02 5.53-7.64 1.88-.98 3.82-1.85 5.71-2.8.85-.44 1.7-.88 2.52-1.39 4.54-2.82 5.71-7.74 2.96-12.41-.57-.95-1.16-1.9-1.6-2.91-2.11-4.83-.29-9.13 4.62-11.05 3.89-1.53 8.88-.22 11.1 2.84z" class="colorffed91 svgShape"></path><path fill="#87ddfd" d="M35.407 25.157h-1.81V42.04l-6.182 6.178 1.275 1.28 5.812-5.803 5.807 5.803 1.276-1.275-6.178-6.183z" class="colore5e5e5 svgShape"></path><path fill="#939393" d="M25.897 58.229c-2.116-1.775-2.863-4.701-2.118-7.36.714-2.546 2.056-5.073 3.52-7.678 1.05-1.87 2.812-2.722 3.699-.765 3.197 7.053 2.205 17.188-1.063 17.223-1.689.018-2.973-.527-4.038-1.42zm17.206 0c2.116-1.775 2.863-4.701 2.118-7.36-.714-2.546-2.056-5.073-3.52-7.678-1.05-1.87-2.812-2.722-3.7-.765-3.196 7.053-2.204 17.188 1.064 17.223 1.689.018 2.973-.527 4.038-1.42z" class="colorf0373c svgShape"></path><path fill="#7a7a7a" d="M29.936 59.647c-.38 0-.74-.02-1.09-.08 2.9-.93 3.64-10.43.6-17.14-.18-.41-.41-.69-.65-.87.82-.47 1.67-.31 2.2.87 3.2 7.05 2.21 17.19-1.06 17.22zm13.17-1.42c-1.07.89-2.35 1.44-4.04 1.42-.16 0-.31-.03-.46-.08 1.17-.17 2.12-.66 2.95-1.34 2.11-1.77 2.86-4.7 2.12-7.36-.72-2.54-2.06-5.07-3.52-7.68-.42-.75-.95-1.33-1.5-1.63.93-.69 2.21.15 3.05 1.63 1.46 2.61 2.8 5.14 3.51 7.68.75 2.66 0 5.59-2.11 7.36z" class="colord5202a svgShape"></path><path fill="#5cd2fe" d="M30.266 59.607c-.11.03-.22.04-.33.04-1.69.02-2.97-.53-4.04-1.42-2.12-1.77-2.86-4.7-2.12-7.36.72-2.54 2.06-5.07 3.52-7.68.77-1.37 1.92-2.19 2.83-1.76-.63.26-1.27.9-1.75 1.76-1.46 2.61-2.8 5.14-3.52 7.68-.74 2.66 0 5.59 2.12 7.36.9.75 1.96 1.26 3.29 1.38zm9.53 0c-.24.03-.48.04-.73.04-3.27-.03-4.26-10.17-1.06-17.22.47-1.05 1.2-1.3 1.94-1-.33.16-.63.48-.87 1-3.07 6.8-2.27 16.46.72 17.18z" class="colorfe5c6e svgShape"></path><path d="M62.773 65.447c-.55-1.21-1.16-2.66-1.53-4.19-1.64-6.58-2.65-11.97-3.19-16.96-1.095-10.298-7.784-10.496-15.53-15.3-2.726-1.708-2.838-4.113-2.12-4.88.37-.426 1.02-.31 1.12-.32 3.752.12 3.53-1.47 4.25-3.54.21-.7.47-1.54.07-2.48 1.24-1.068 1.274-2.288.28-3.32-.96-1-1.03-2.09-1.04-3.66-.11-6.5-7.749-9.863-13.5-7.6-5.195 2.023-7.361 6.742-5.03 12.05.41.95.94 1.83 1.46 2.69l.18.3c2.54 4.32 1.47 8.79-2.72 11.4-5.955 3.676-13.122 4.474-14.1 12.36-1.214 8.902-1.757 15.174-5.15 23.48-.1.23-.07.49.07.7s.37.33.62.33h7.87c.31 0 .58-.19.7-.47 2.445-6.079 1.935-9.11 2.98-12.35.18-.53.39-1.05.62-1.59 1.55 3.93 2.75 9.75 2.21 13.55-.04.22.03.44.17.6.14.17.35.26.57.26h24.91c.22 0 .43-.1.57-.27.15-.17.2-.4.16-.62-.74-3.94.85-9.65 2.15-13.38.28 1.16.58 2.64.83 3.91.19.97.37 1.85.51 2.45.58 2.46 1.36 4.9 2.37 7.44.12.28.39.47.7.47h7.85c.26 0 .49-.13.63-.34.14-.22.16-.48.06-.72zm-8.03-.44c-.9-2.3-1.59-4.52-2.12-6.76-.14-.58-.31-1.44-.5-2.39-.4-2.02-.85-4.31-1.27-5.51-.12-.34-.49-.53-.85-.5-.17.02-.35.04-.53.07-.27.05-.49.23-.58.48-1.31 3.5-3.34 9.87-2.82 14.61h-23.21c.34-4.39-1.1-10.64-2.81-14.46-.12-.28-.34-.4-.51-.49-.06-.03-.14-.07-.24-.14a.754.754 0 0 0-1.09.36c-.13.34-.27.68-.41 1-2.132 4.975-1.115 7.574-3.53 13.73h-6.25c3.097-8.04 3.707-14.262 4.84-22.82.862-6.982 7.18-7.413 13.41-11.28 4.86-3.03 6.16-8.43 3.21-13.44l-.19-.3c-.49-.82-.99-1.66-1.37-2.52C23.46 4.342 38.845.4 42.793 7.857c1.63 3.092-.13 5.167 2.25 7.63 1.117 1.197-1.717 1.335-.78 2.56.614.803.104 1.321-.16 2.64-.614 3.125-2.975.428-4.82 2.42-1.328 1.486-1.148 4.919 2.45 7.16 7.815 4.84 13.809 4.71 14.83 14.19.55 5.06 1.57 10.51 3.22 17.16.3 1.21.73 2.36 1.16 3.39h-6.2z" fill="#030303" class="color000000 svgShape"></path><path d="M42.043 42.997c-.74-1.32-1.79-2.09-2.73-2.07-1.18.048-1.694 1.227-2.09 2.38l-1.43-1.43c-.167-16.815.362-17.11-.39-17.11-1.19.092-2.2-.268-2.2.39v16.72l-1.42 1.43c-.422-1.137-.903-2.331-2.09-2.38-.95-.03-1.99.75-2.74 2.07-1.39 2.48-2.81 5.13-3.55 7.77-1.288 4.573 1.723 9.27 6.45 9.27h.09c3.486 0 4.048-8.347 2.7-13.94l1.86-1.85 1.85 1.85c-1.2 4.98-.8 10.27.7 12.62.69 1.08 1.47 1.32 2.01 1.32h.08c1.62 0 3-.49 4.21-1.51 2.17-1.82 3.05-4.87 2.24-7.76-.74-2.65-2.16-5.29-3.55-7.77zm-12.11 16.26c-4.223.059-6.94-4.147-5.78-8.28.524-1.864 3.568-9.463 5.5-9.27 1.148.029 2.077 3.923 2.34 5.05 1.325 6.107.154 12.5-2.06 12.5zm2.48-14.03c-.1-.38-.21-.75-.35-1.11l1.81-1.8c.21-.21.068.645.11-16.77h1.03c.042 17.488-.107 16.543.12 16.77l1.8 1.8c-.14.37-.25.74-.35 1.11-2.643-2.563-1.52-2.557-4.17 0zm10.44 12.7c-1.07.9-2.28 1.33-3.71 1.33h-.07c-.5 0-.96-.33-1.36-.96-3.006-4.746-.063-16.548 1.63-16.59.01-.01.02-.01.04-.01.62 0 1.41.67 1.98 1.69 1.396 2.477 3.75 6.71 3.75 9.54 0 1.94-.8 3.78-2.26 5z" fill="#030303" class="color000000 svgShape"></path></svg>