<svg xmlns="http://www.w3.org/2000/svg" fill-rule="evenodd" clip-rule="evenodd" image-rendering="optimizeQuality" shape-rendering="geometricPrecision" text-rendering="geometricPrecision" viewBox="0 0 2048 2048" id="Ent"><path fill="#8bc9e0" fill-rule="nonzero" d="M356.9 567.337c10.227-31.022 27.018-56.544 47.319-75.103 22.703-20.752 49.797-32.754 77.514-34.303 24.259-1.354 48.454 4.597 69.977 16.663 20.602 11.55 38.894 28.858 52.443 50.802 10.338 16.748 15.728 32.185 18.48 46.624 2.596 13.62 2.662 25.637 2.433 36.974-.437 21.544-5.37 40.699-13.713 59.791-7.55 17.281-17.712 34.026-29.796 52.633-12.009 18.496-17.17 34.085-21.627 48.478a34.937 34.937 0 0 1-1.67 5.374c-6.46 20.466-13.55 37.597-21.72 51.183-11.01 18.303-24.318 30.985-40.735 37.618-3.35 1.35-6.51 2.418-9.479 3.218-25.443 6.848-49.64.594-69.52-12.93-17.76-12.081-31.964-30.334-39.754-49.655-1.629-4.041-2.961-7.961-3.97-11.711 92.995-142.221-3.596-115.273-16.182-225.656z" class="colore0aa8b svgShape"></path><path fill="#87ddfd" fill-rule="nonzero" d="M306.684 465.97c20.034-60.77 52.472-110.352 91.478-146.007 42.152-38.533 92-60.789 142.61-63.617 44.642-2.496 89.376 8.576 129.369 30.996 38.909 21.812 73.463 54.515 99.074 95.992 19.425 31.466 29.511 60.294 34.637 87.175 4.978 26.123 5.093 49.734 4.64 72.084-.828 40.817-10.339 77.487-26.434 114.326-15.362 35.159-36.573 70.045-61.901 109.048-31.323 48.24-43.316 87.146-54.408 123.128l-.01.03c-13.663 44.302-28.415 80.747-45.226 108.695-19.096 31.752-41.291 53.39-67.818 64.112-5.428 2.188-10.683 3.956-15.753 5.32-42.159 11.349-82.66.707-116.204-22.109-31.58-21.481-56.906-54.122-70.88-88.788-2.817-6.981-5.155-13.893-6.975-20.654-3.395-80.056 20.188-144.99 60.072-112.915 5.725 6.705 12.305 12.711 19.517 17.617 18.424 12.533 40.847 18.329 64.425 11.982 2.752-.741 5.681-1.73 8.784-2.982 15.215-6.147 27.55-17.9 37.752-34.86 7.572-12.592 14.14-28.467 20.128-47.433a32.475 32.475 0 0 0 1.547-4.98c4.13-13.339 8.914-27.786 20.042-44.926 11.198-17.243 20.617-32.762 27.613-48.775 7.73-17.694 12.303-35.445 12.707-55.409.212-10.507.15-21.643-2.255-34.265-2.55-13.38-7.544-27.686-17.124-43.207-12.557-20.336-29.508-36.376-48.6-47.079-19.947-11.181-42.368-16.697-64.85-15.442-25.685 1.435-50.794 12.558-71.833 31.79-18.814 17.197-34.375 40.85-43.852 69.597a32.37 32.37 0 0 0-.96 16.765c-6.872 14.074-68.303-70.962-59.312-125.209z" class="colorffcaac svgShape"></path><path fill="#8bc9e0" d="M580.184 1742.55c65.626 0 154.485 31.205 154.485 42.775 0 11.571-86.243 1.375-154.485-.873-68.242-2.248-81.98-4.65-136.395-6.386-54.416-1.738 70.77-35.516 136.395-35.516z" class="colore0aa8b svgShape"></path><path fill="#87ddfd" fill-rule="nonzero" d="M525.457 1139.36c.983-17.903 16.293-31.618 34.197-30.636 238.742 13.102 160.374 239.737 226.529 478.934.127.133 44.59 45.91 44.59 102.13 0 6.616-.813 13.491-2.385 20.521-5.194 23.235-18.92 44.01-38.905 58.788-19.147 14.16-43.9 22.903-72.013 22.903-9.87 0-20.516-1.183-31.865-3.722-28.466-6.363-49.37-16.65-77.91-18.075-29.906-1.494-68.344 5.949-132.879 8.057-86.201 2.817-127.373-20.653-141.364-60.993-12.707-36.64 2.463-81.691 27.254-131.015a3866.073 3866.073 0 0041.671-85.49c36.985-78.31 72.689-159.966 98.268-242.696 13.624-44.07 22.945-85.118 24.812-118.706zM1735.83 1528.95c10.671 14.393 7.655 34.713-6.737 45.383l-194.625 22.299c-21.263-49.277-128.046-288.802-212.849-363.916-97.303-86.185-312.901-60.495-313.549-60.4l9.407 54.426c.562-.082 186.843-11.305 261.174 54.534 65.912 58.38 103.77 270.936 113.42 331.67l-205.59 23.554c-17.832-1.964-30.695-18.015-28.73-35.847.023-.207 8.251-71.98 3.543-142.626-1.388-20.833-9.373-21.052-29.012-21.59-20.143-.55-45.826-1.255-78.323-7.496-26.19-5.03-45.71-13.583-60.084-24.132-17.44-12.799-27.419-28.358-32.409-44.55-4.839-15.69-4.674-31.267-2.016-45.108 2.96-15.415 9.327-29.27 15.094-38.418-25.385-25.109-10.907-55.098-3.05-70.51 0 0-44.233-31.53.637-66.08l.486-.578c2.795-3.34 4.427-5.912 5.147-7.835l-.327-.166c-1.523-.757-3.062-1.103-4.258-.955-28.81 3.604-50.41.512-65.756-6.719-9.38-4.42-16.77-10.512-22.339-17.85-6.102-8.042-9.592-16.926-10.762-26.277-1.52-12.147.973-24.824 6.703-36.985 6.865-14.566 18.781-32.472 31.777-52 22.7-34.11 49.577-74.499 46.438-81.405h.003c-.131-.294-.26-.59-.385-.889-.102-.247-35.835-85.43-21.273-149.547 20.89-91.916 72.45-159.11 139.112-203.464 74.895-49.83 168.715-70.253 258.773-64.062 76.452 5.258 139.723 27.554 189.887 61.506 51.83 35.079 89.484 82.454 113.143 136.334 23.354 53.191 32.882 112.547 28.768 172.394-4.875 70.918-28.827 142.706-71.536 205.808-25.157 37.167-36.059 74.764-38.657 109.36-3.685 49.066 9.047 92.416 21.706 120.276 23.13 50.903 156.665 231.34 157.05 231.86z" class="colorffcaac svgShape"></path><path fill="#74b4cc" fill-rule="nonzero" d="M401.073 599.144c6.859-20.805 18.12-37.923 31.735-50.368 15.226-13.918 33.397-21.967 51.986-23.007 16.269-.908 32.496 3.084 46.93 11.176 13.818 7.745 26.085 19.353 35.172 34.07 6.934 11.233 10.549 21.586 12.394 31.27 1.74 9.134 1.786 17.193 1.632 24.797-.293 14.448-3.602 27.295-9.196 40.1-5.063 11.588-11.88 22.818-19.984 35.298-8.053 12.404-11.516 22.86-14.504 32.513a23.448 23.448 0 0 1-1.12 3.604c-4.332 13.726-9.087 25.214-14.568 34.326-7.383 12.276-16.308 20.78-27.318 25.23-2.247.905-4.367 1.62-6.358 2.158-17.064 4.592-33.292.398-46.624-8.672-11.912-8.103-21.437-20.344-26.661-33.302-1.093-2.711-1.987-5.339-2.664-7.855 62.37-95.382-2.412-77.309-10.852-151.338z" class="colorcc9474 svgShape"></path><path fill="#74b4cc" d="M1321.62 1232.72c-97.303-86.185-312.901-60.495-313.549-60.4l-5.408 29.29 14.816 25.136c.56-.082 186.843-11.304 261.174 54.534 65.911 58.38 103.769 270.936 113.419 331.67l142.397-16.315c-21.264-49.277-128.046-288.802-212.85-363.916z" class="colorcc9474 svgShape"></path><path fill="#030303" fill-rule="nonzero" d="M1529.88 1598.61c-13.474-31.227-61.331-138.946-116.033-232.472-31.382-53.655-64.985-102.633-95.528-129.685-31.711-28.088-76.56-44.055-122.256-52.857-83.29-16.044-169.047-8.264-184.73-6.614-3.408 7.525-4.95 17.22-3.404 26.17 1.27 7.349 4.674 14.128 10.927 18.536 13.363-.68 89.095-3.552 159.962 11.245 39.446 8.237 77.565 21.967 103.137 44.618 33.817 29.951 60.191 98.569 79.311 167.354 18.97 68.25 30.888 136.8 35.728 167.267l-9.843 1.561c-4.808-30.266-16.648-98.364-35.494-166.17-18.698-67.27-44.212-134.126-76.304-162.55-24.078-21.327-60.593-34.385-98.567-42.314-76.5-15.973-158.236-11.062-158.603-11.01l-3.32-.702c-9.791-6.057-14.973-15.724-16.777-26.155-2.088-12.087.45-25.319 5.592-34.873l1.19-2.212 2.482-.366c.433-.064 97.133-11.592 190.59 6.41 47.217 9.094 93.722 25.74 126.983 55.2 31.433 27.841 65.677 77.67 97.519 132.109 55.098 94.204 103.108 202.253 116.619 233.566l-9.18 3.945z" class="color6e462e svgShape"></path><path fill="none" d="M0 0h2048v2048H0z"></path></svg>