<svg xmlns="http://www.w3.org/2000/svg" viewBox="0 0 128 128" id="Muscularsystem"><path fill="#8fe1ff" d="M97.632,20.947c-3.673.775-4.1,3.639-3.284,5.373,1.3,2.744,5.159,2.3,8.783-.007Z" class="colorff8f95 svgShape"></path><path fill="#abe8ff" d="M123.92,24.58C122.67,17.5,116.98.89,109.97,4.63c-1.92,1.03-6.84,3.37-8.66,5.1-3.65,3.48-5.11,6.21-5.04,9.07.09,3.62,6.28,6.62,11.89,11.4,1.244,1.054,1.854,2.72,3.087,3.838a1.15,1.15,0,0,1,.313,1.286C104.886,51.6,87.183,64.5,78.83,74.88c-2.08-4.39-6.97-23.83-34.25-31.81C40.727,32.23,37.508,9.647,5.362,12.412A3,3,0,0,0,2.63,15.4V65.619a2.969,2.969,0,0,0,.2,1.083C4.4,70.733,15.521,96.193,49.86,107.74c7.93,2.67,20,12.23,27.55,12.77,10.37.74,9.71-4.85,16.93-11.33,25.91-23.28,26.05-57.05,28.06-70.13C123.35,32.88,124.88,29.94,123.92,24.58Z" class="colorffabab svgShape"></path><path fill="#7dd7f9" d="M2.635,18.736V59.723c7.4,5.792,17.752,7.892,17.752,7.892L38.732,50.6C36.9,34.733,19.929,18.736,2.635,18.736Z" class="colorf97d89 svgShape"></path><path fill="#8fe1ff" d="M74.888,103.937c-33.516-.652-54.169-27.4-61.619-54.356l5.721-6.35C47.021,49.9,75.195,72.769,78.127,99.262Z" class="colorff8f95 svgShape"></path><path fill="#87ddfd" d="M2.781 24.581V47.644c7.241 1.049 15.077 4.445 21.092 7.86a1.669 1.669 0 0 0 2.272-2.3C20.051 43.021 11.015 26.517 2.781 24.581zM82.1 102.187l-1.49-1.1a12.294 12.294 0 0 1-3.634-4.4C70.737 84.366 57.942 79.9 51.754 78.421a2.045 2.045 0 0 0-2.392 2.689c2.92 8.076 8.839 18.88 23.229 22.35a11.842 11.842 0 0 1 4.39 2.065l1.455 1.1a2.982 2.982 0 0 0 4.036-.311A2.876 2.876 0 0 0 82.1 102.187z" class="colorffdcdc svgShape"></path><path fill="#030303" d="M125.4,24.318c-1.007-5.664-4.98-18.278-10.829-21.116a5.639,5.639,0,0,0-5.305.107c-.357.19-.818.426-1.343.695-3.172,1.625-6.145,3.2-7.653,4.642-3.887,3.706-5.584,6.849-5.5,10.189a4.976,4.976,0,0,0,.284,1.514,5.059,5.059,0,0,0-2.061,6.612,4.616,4.616,0,0,0,2.973,2.526,6.061,6.061,0,0,0,1.69.226,11.4,11.4,0,0,0,5.385-1.606c1.372,1.01,2.772,2.06,4.147,3.231a8.032,8.032,0,0,1,1.306,1.641,11.989,11.989,0,0,0,1.569,1.994c-4.46,10.7-13.8,19.929-22.085,28.1-3.246,3.2-6.244,6.158-8.706,8.956-2.653-6.662-9.563-22.865-33.518-30.157-.316-.933-.633-1.936-.964-2.993C41.209,27.452,35.213,8.34,5.243,10.92a4.529,4.529,0,0,0-4.108,4.488V65.617a4.47,4.47,0,0,0,.3,1.628C3.369,72.2,14.756,97.513,49.384,109.162c3.136,1.054,6.988,3.258,11.066,5.591,5.939,3.4,12.08,6.911,16.849,7.251q.973.07,1.838.069c6.493,0,8.67-2.835,11.365-6.348a37.179,37.179,0,0,1,4.836-5.433C118.211,89.75,121.4,60.97,123.117,45.508c.269-2.419,1.376-9.583,1.672-10.956C125.534,31.1,126.122,28.369,125.4,24.318ZM96.8,26.605a1.629,1.629,0,0,1-1.092-.925,2.178,2.178,0,0,1,0-1.853,2.253,2.253,0,0,1,.937-.933,26.084,26.084,0,0,0,3.672,3.2A5.706,5.706,0,0,1,96.8,26.605ZM4.135,20.3c14.571.831,29.415,13.573,32.618,27.719a88.2,88.2,0,0,0-15.538-5.774c-5.209-8.409-11.1-16.6-17.08-18.787ZM47.952,81.62c3.182,8.8,7.909,15.144,14.324,19.177-24.4-5.91-39.576-27.034-46.307-47.546,2.856,1.261,5.3,2.556,7.038,3.542a3.21,3.21,0,0,0,1.59.426,3.111,3.111,0,0,0,1.048-.194c2.282,2.294,5.351,5.434,8.585,8.744,5.34,5.464,10.835,11.085,13.628,13.765A3.536,3.536,0,0,0,47.952,81.62Zm2.821-1.02a.535.535,0,0,1,.108-.556.521.521,0,0,1,.39-.181.594.594,0,0,1,.133.016C57.941,81.445,69.78,85.8,75.633,97.367a13.7,13.7,0,0,0,4.083,4.928l1.462,1.078a1.374,1.374,0,0,1,.158,1.963,1.484,1.484,0,0,1-1.994.1l-1.454-1.1A13.261,13.261,0,0,0,72.942,102C62.3,99.436,55.052,92.436,50.773,80.6ZM52.1,76.961a3.528,3.528,0,0,0-2.34.245c-2.793-2.693-8.166-8.19-13.388-13.534-3.29-3.366-6.406-6.554-8.708-8.868a3.143,3.143,0,0,0-.36-2.383c-.562-.938-3.1-5.232-3.8-6.395,21.18,6.514,43.829,23.1,51.017,44.2C67.712,81.862,57.943,78.361,52.1,76.961ZM4.135,26.688c6.443,3.376,20.035,26.331,20.6,27.273a.132.132,0,0,1-.019.2.159.159,0,0,1-.226.028c-4.114-2.337-12.1-6.364-20.353-7.843Zm0,22.713a51.029,51.029,0,0,1,8.224,2.374,92.354,92.354,0,0,0,5.229,13.56A44.928,44.928,0,0,1,4.135,58.969ZM121.856,33.919c-.3,1.414-1.449,8.806-1.72,11.259-1.671,15.064-4.781,43.1-26.8,62.882a39.651,39.651,0,0,0-5.212,5.839c-2.754,3.589-4.264,5.567-10.61,5.113-4.086-.292-9.925-3.632-15.572-6.863-4.21-2.408-8.185-4.683-11.6-5.831C16.978,95.1,6.079,70.894,4.234,66.157a1.462,1.462,0,0,1-.1-.54v-3a52.007,52.007,0,0,0,15.294,6.319c10.243,19.07,28.1,35.477,54.261,36.453a10.131,10.131,0,0,1,2.384,1.329l1.455,1.1a4.637,4.637,0,0,0,2.8.948,4.3,4.3,0,0,0,3.277-1.475,4.373,4.373,0,0,0-.574-6.282c-.014-.012-.03-.024-.047-.036l-1.49-1.1A10.1,10.1,0,0,1,79.437,97.8c-2.895-20.563-20.076-37.936-39.32-48.1C37.793,33.4,20.777,18.174,4.135,17.3v-1.89a1.51,1.51,0,0,1,1.366-1.5c27.57-2.378,32.9,14.617,36.425,25.862,1.252,3.994,2.241,7.149,3.966,8.919A1.5,1.5,0,1,0,48.04,46.6a5.39,5.39,0,0,1-.768-1.08C68.413,52.84,74.151,67.253,76.66,73.575c.159.4.3.759.433,1.081a28.873,28.873,0,0,0-2.574,3.872,1.5,1.5,0,0,0,2.64,1.426c2.318-4.293,7.233-9.139,12.924-14.749,8.4-8.283,17.857-17.635,22.6-28.74a7.922,7.922,0,0,0,2.893.168,1.5,1.5,0,0,0-.326-2.983c-2.514.274-3.206-.765-4.262-2.341-.253-.379-.526-.783-.837-1.179a34.9,34.9,0,0,1,5.469-5.672A1.5,1.5,0,0,0,113.9,22a36.3,36.3,0,0,0-5.951,6.082c-.729-.585-1.455-1.139-2.167-1.672.207-.276,4.693-6.445,7.018-7.552a1.5,1.5,0,1,0-1.289-2.709c-3.015,1.436-7.939,8.211-8.139,8.482-.745-.548-1.469-1.087-2.136-1.614a28.36,28.36,0,0,1,4.459-7.036,12.479,12.479,0,0,1,4.028-2.765c.5-.238,1.01-.482,1.566-.79A1.5,1.5,0,0,0,109.834,9.8c-.5.276-.953.492-1.4.7a15.344,15.344,0,0,0-4.845,3.339,32.02,32.02,0,0,0-4.7,7.055,3.61,3.61,0,0,1-1.117-2.136c-.061-2.455,1.306-4.831,4.572-7.945,1.319-1.258,4.845-3.064,6.95-4.143.544-.278,1.021-.523,1.39-.72a2.646,2.646,0,0,1,2.582-.053c4.1,1.989,8.032,12.463,9.185,18.943C123.065,28.313,122.559,30.665,121.856,33.919Z" class="color452f4c svgShape"></path></svg>