<svg xmlns="http://www.w3.org/2000/svg" fill-rule="evenodd" clip-rule="evenodd" image-rendering="optimizeQuality" shape-rendering="geometricPrecision" text-rendering="geometricPrecision" viewBox="0 0 512 512" id="Cardiology"><path fill="#87ddfd" d="M392 15l5 9c4 5 7 9 11 11-1-2-3-6-6-9-3-5-7-9-10-11zM113 16c7 3 19 4 26 3-3-1-6-2-10-3-5 0-11-1-16 0zM366 287c-48-9-86-51-116-87-16 47 8 102 41 149 6-3 20-10 14-29-2-8 10-11 12-3 7 26-8 37-19 42 7 9 15 19 23 29 6 6-3 13-9 7-10-12-20-24-28-35-8-9-23-36-27-43-15 4-61 22-45 79 2 8-9 11-11 3-18-65 31-87 50-93-10-22-17-45-18-67-16 5-58 24-43 79 2 8-9 11-11 3-7-24-4-42 2-55-20-14-40-63-56-114-26 80-36 202 30 260 61 54 131 91 198 88 102-5 89-224 17-296-23-24-44-47-66-72-22 20-40 41-48 55 2 4 7 10 14 18 6-2 20-9 15-29-2-7 9-10 11-3 7 25-7 37-18 42 13 14 30 30 49 42 6-1 22-8 16-29-2-7 9-11 11-3 7 23-5 34-14 40 9 5 19 8 28 10 8 2 6 13-2 12z" class="color5382aa svgShape"></path><path fill="#86dcfc" d="M187 256c15,-19 37,-27 46,-29 1,-17 5,-30 10,-42 19,-40 113,-119 164,-142 -4,-4 -8,-9 -10,-12 -3,-4 -7,-10 -9,-16 -81,26 -191,160 -191,160 -2,2 -3,3 -5,3l0 0c-1,0 -3,-1 -4,-2 -1,-1 -56,-63 -40,-145 -10,1 -24,0 -33,-5 -1,23 6,63 17,104 0,0 0,1 0,1 15,57 37,114 55,125z" class="colorfcd786 svgShape"></path><path fill="#87ddfd" d="M192 162c11,-12 39,-44 73,-76l-8 -9c-13,-15 -39,-33 -58,-32 -16,1 -31,19 -40,34 0,0 -1,0 -1,0 5,41 25,71 34,83z" class="color5382aa svgShape"></path><path fill="#030303" d="M256 69l0 0zm-109 -9c0,-11 2,-23 5,-35 0,0 0,-1 0,-1 0,-1 1,-2 1,-3 1,-12 -19,-16 -27,-17 -10,-1 -30,-1 -31,10l0 0 0 0c-1,1 -1,1 -1,2 -4,20 3,67 16,116 -32,84 -48,223 27,289 63,57 137,94 206,91 117,-6 103,-239 26,-316 -24,-25 -44,-47 -66,-72 38,-34 84,-67 109,-74 2,0 3,-1 4,-1 1,-1 2,-1 2,-2 7,-7 -2,-23 -8,-30 -6,-8 -20,-21 -28,-16 -38,10 -81,43 -118,76l-8 -8c-8,-9 -25,-22 -34,-27 -32,-18 -55,-7 -75,18zm100 17l0 0zm-98 2c9,-15 24,-33 40,-34 19,-1 45,17 58,32l8 9c-34,32 -62,64 -73,76 -9,-12 -29,-42 -34,-83 0,0 1,0 1,0zm238 -48l0 0zm-200 144c0,0 110,-134 191,-160 2,6 6,12 9,16 2,3 6,8 10,12 -51,23 -145,102 -164,142 -5,12 -9,25 -10,42 -9,2 -31,10 -46,29 -18,-11 -40,-68 -55,-125 0,0 0,-1 0,-1 -11,-41 -18,-81 -17,-104 9,5 23,6 33,5 -16,82 39,144 40,145 1,1 3,2 4,2l0 0c2,0 3,-1 5,-3zm94 174c-33,-47 -57,-102 -41,-149 30,36 68,78 116,87 8,1 10,-10 2,-12 -9,-2 -19,-5 -28,-10 9,-6 21,-17 14,-40 -2,-8 -13,-4 -11,3 6,21 -10,28 -16,29 -19,-12 -36,-28 -49,-42 11,-5 25,-17 18,-42 -2,-7 -13,-4 -11,3 5,20 -9,27 -15,29 -7,-8 -12,-14 -14,-18 8,-14 26,-35 48,-55 22,25 43,48 66,72 72,72 85,291 -17,296 -67,3 -137,-34 -198,-88 -66,-58 -56,-180 -30,-260 16,51 36,100 56,114 -6,13 -9,31 -2,55 2,8 13,5 11,-3 -15,-55 27,-74 43,-79 1,22 8,45 18,67 -19,6 -68,28 -50,93 2,8 13,5 11,-3 -16,-57 30,-75 45,-79 4,7 19,34 27,43 8,11 18,23 28,35 6,6 15,-1 9,-7 -8,-10 -16,-20 -23,-29 11,-5 26,-16 19,-42 -2,-8 -14,-5 -12,3 6,19 -8,26 -14,29zm115 -325l0 0zm11 11c-4,-2 -7,-6 -11,-11l-5 -9c3,2 7,6 11,11 2,3 4,7 5,9zm-296 -19c4,-1 10,0 15,0 4,1 8,2 11,3 -8,1 -19,0 -26,-3z" class="color3d3d3d svgShape"></path></svg>