<svg xmlns="http://www.w3.org/2000/svg" viewBox="0 0 128 128" id="Reproductivesystem"><path fill="#80ddff" d="M94.8,31.39A5.642,5.642,0,0,1,96,33.52C71.92,44.08,66.38,61.31,65.94,68.56c-.23,3.79.9,7.14,3.56,5.27,3.5-2.46,7.62.62,4.83,6.38-1.8,3.74-4.26,16.42-5.68,30.13a9.48,9.48,0,0,0-9.3,0c-1.42-13.71-3.88-26.39-5.68-30.13-2.79-5.76,1.33-8.84,4.83-6.38,2.66,1.87,3.79-1.48,3.56-5.27C61.62,61.31,56.08,44.08,32,33.52a5.642,5.642,0,0,1,1.2-2.13c7.17-8,20.94-10.76,30.8-10.77S87.63,23.39,94.8,31.39Z" class="colorff809e svgShape"></path><path fill="#50d0ff" d="M64,38.17c7.05,0,22-1.34,32-4.65C71.92,44.08,66.38,61.31,65.94,68.56c-.23,3.79.9,7.14,3.56,5.27,3.5-2.46,7.62.62,4.83,6.38-1.8,3.74-4.26,16.42-5.68,30.13a9.48,9.48,0,0,0-9.3,0c-1.42-13.71-3.88-26.39-5.68-30.13-2.79-5.76,1.33-8.84,4.83-6.38,2.66,1.87,3.79-1.48,3.56-5.27C61.62,61.31,56.08,44.08,32,33.52,42,36.83,56.95,38.17,64,38.17Z" class="colorff5082 svgShape"></path><path fill="#80ddff" d="M59.351 110.357a2.826 2.826 0 0 1-2.857 3.113H56.08a2.337 2.337 0 0 1-2.3-1.91c-.96-5.18-3.97-22.6-7.4-29.56-4.76-9.63 2.99-17.11-2.13-20.62-7.92-5.45-11.29-18.51-12.43-25.09A5.89 5.89 0 0 1 32 33.52C56.08 44.08 61.62 61.31 62.06 68.56c.23 3.79-.9 7.14-3.56 5.27-3.5-2.46-7.62.62-4.83 6.38 1.8 3.74 4.26 16.42 5.68 30.13zM65.94 68.56c.44-7.248 5.977-24.472 30.043-35.032a.017.017 0 0 1 .023.01 5.891 5.891 0 0 1 .174 2.752c-1.14 6.58-4.51 19.64-12.43 25.08-5.12 3.52 2.63 11-2.12 20.63-3.44 6.96-6.45 24.38-7.41 29.56a2.337 2.337 0 0 1-2.3 1.91h-.391a2.848 2.848 0 0 1-2.879-3.13h0c1.42-13.71 3.88-26.39 5.68-30.13 2.79-5.76-1.33-8.84-4.83-6.38C66.84 75.7 65.71 72.35 65.94 68.56z" class="colorff809e svgShape"></path><path fill="#8fe1ff" d="M25.341 57.849A17.622 17.622 0 0 0 23.1 63.605a3.365 3.365 0 0 1-4.527 2.461h0A3.311 3.311 0 0 1 16.451 63.4a10.787 10.787 0 0 1 3.857-9.9 3.307 3.307 0 0 1 3.365-.529h0A3.365 3.365 0 0 1 25.341 57.849zM102.659 57.849a17.622 17.622 0 0 1 2.244 5.756 3.365 3.365 0 0 0 4.527 2.461h0a3.311 3.311 0 0 0 2.119-2.667 10.787 10.787 0 0 0-3.857-9.9 3.307 3.307 0 0 0-3.365-.529h0A3.365 3.365 0 0 0 102.659 57.849z" class="colorff8f95 svgShape"></path><path fill="#030303" d="M126.355,31.681c-4.207-8.862-13.385-5.491-21.483-2.518a77.626,77.626,0,0,1-7.992,2.592,7.229,7.229,0,0,0-.96-1.357C88.478,22.087,74.551,19.125,64,19.125S39.522,22.087,32.08,30.4a7.3,7.3,0,0,0-.963,1.365,78.156,78.156,0,0,1-7.989-2.6c-8.1-2.974-17.277-6.344-21.483,2.518C.116,34.9.2,39.322,1.866,43.809A27.975,27.975,0,0,0,15.311,58.553a13.2,13.2,0,0,0-.35,5.016,4.785,4.785,0,0,0,3.065,3.895A4.865,4.865,0,0,0,24.568,63.9a16.22,16.22,0,0,1,2.055-5.27,4.866,4.866,0,0,0-2.405-7.052,4.777,4.777,0,0,0-4.892.794,13.444,13.444,0,0,0-2.849,3.4,24.906,24.906,0,0,1-11.8-13.012c-1.369-3.676-1.49-7.337-.323-9.794,2.886-6.08,8.621-4.336,17.739-.989a81.752,81.752,0,0,0,8.173,2.655,7.424,7.424,0,0,0,.076,1.9c1.01,5.835,4.3,20.057,13.057,26.075,1.514,1.04,1.381,2.508.653,6.132-.72,3.581-1.706,8.485.977,13.921,3.093,6.268,5.958,21.946,7.036,27.849l.243,1.324a3.831,3.831,0,0,0,3.768,3.13,4.675,4.675,0,0,0,4.57-3.576,7.851,7.851,0,0,1,6.707.006,4.677,4.677,0,0,0,4.569,3.57,3.831,3.831,0,0,0,3.768-3.129l.243-1.325c1.078-5.9,3.943-21.581,7.036-27.849,2.683-5.436,1.7-10.34.977-13.921-.728-3.624-.861-5.092.653-6.132,8.754-6.018,12.047-20.24,13.057-26.075a7.432,7.432,0,0,0,.076-1.9,81.487,81.487,0,0,0,8.173-2.654c9.119-3.348,14.852-5.091,17.739.989,1.167,2.457,1.046,6.118-.323,9.794a24.918,24.918,0,0,1-11.8,13.017,13.457,13.457,0,0,0-2.852-3.409,4.779,4.779,0,0,0-4.892-.794,4.866,4.866,0,0,0-2.405,7.052,16.224,16.224,0,0,1,2.055,5.269,4.863,4.863,0,0,0,4.768,3.9,4.88,4.88,0,0,0,1.775-.334,4.785,4.785,0,0,0,3.064-3.9,13.2,13.2,0,0,0-.35-5.015,27.975,27.975,0,0,0,13.445-14.744C127.8,39.322,127.884,34.9,126.355,31.681ZM21.292,54.636a1.712,1.712,0,0,1,1.124-.4,1.954,1.954,0,0,1,.712.135,1.88,1.88,0,0,1,1.1,1.15,1.814,1.814,0,0,1-.169,1.548,19.229,19.229,0,0,0-2.433,6.243,1.814,1.814,0,0,1-.923,1.253,1.877,1.877,0,0,1-1.588.1,1.821,1.821,0,0,1-1.174-1.439A9.292,9.292,0,0,1,21.292,54.636ZM34.315,32.4C41.105,24.816,54.55,22.125,64,22.125S86.9,24.816,93.686,32.4c.061.069.114.144.171.216C84.368,35.4,70.944,36.667,64,36.667S43.632,35.4,34.143,32.616C34.2,32.543,34.253,32.469,34.315,32.4ZM66.7,75.5a3.293,3.293,0,0,0,3.664-.44,2.209,2.209,0,0,1,2.7-.207c.717.611,1.128,2.209-.077,4.7a17.034,17.034,0,0,0-.772,1.979,23.585,23.585,0,0,0-16.425-.008,16.928,16.928,0,0,0-.769-1.971c-1.205-2.492-.794-4.09-.077-4.7a2.209,2.209,0,0,1,2.7.207,3.291,3.291,0,0,0,3.664.44c2.342-1.309,2.359-5.352,2.258-7.029-.125-2.068-1.717-18.308-20.723-30.807a135.65,135.65,0,0,0,21.163,2,135.549,135.549,0,0,0,21.164-2C66.158,50.163,64.565,66.4,64.44,68.472,64.339,70.149,64.356,74.192,66.7,75.5Zm4.679,8.912c-.288,1.107-.577,2.343-.864,3.68a20.346,20.346,0,0,0-13.026,0c-.288-1.339-.577-2.576-.865-3.684A20.431,20.431,0,0,1,71.377,84.413Zm-14.01,26.979a1.715,1.715,0,0,1-1.29.575.829.829,0,0,1-.818-.676l-.242-1.317c-1.2-6.582-4.018-21.994-7.3-28.638-2.23-4.519-1.431-8.494-.726-12,.685-3.41,1.394-6.936-1.894-9.2-8.034-5.523-11.064-19.854-11.8-24.115-.016-.093-.03-.188-.04-.282C58.572,47.686,60.436,66.5,60.565,68.653c.154,2.544-.407,4.032-.671,4.213a1.209,1.209,0,0,1-.532-.261A5.094,5.094,0,0,0,53,72.569c-1.607,1.366-2.631,4.262-.682,8.292,1.5,3.1,3.934,14.382,5.491,29.176A1.728,1.728,0,0,1,57.367,111.392Zm10.01-3.193a10.582,10.582,0,0,0-6.755,0q-.228-2.053-.484-4.062a17.218,17.218,0,0,1,7.721.024Q67.6,106.155,67.377,108.2Zm.88-7.021a20.1,20.1,0,0,0-8.517-.019c-.176-1.259-.357-2.5-.544-3.7a17.047,17.047,0,0,1,9.607.008C68.615,98.672,68.434,99.916,68.257,101.178ZM69.29,94.5a20.22,20.22,0,0,0-10.58,0c-.2-1.193-.411-2.354-.622-3.455a17.249,17.249,0,0,1,11.826-.009C69.7,92.139,69.5,93.3,69.29,94.5ZM94.7,36.024c-.737,4.261-3.767,18.592-11.8,24.115-3.288,2.26-2.579,5.786-1.894,9.2.7,3.507,1.5,7.482-.726,12-3.279,6.644-6.095,22.056-7.3,28.638l-.242,1.318a.83.83,0,0,1-.818.675,1.744,1.744,0,0,1-1.73-1.93c1.557-14.794,3.991-26.074,5.491-29.176,1.949-4.03.925-6.926-.682-8.292a4.583,4.583,0,0,0-3-1.1,5.882,5.882,0,0,0-3.359,1.132,2.813,2.813,0,0,1-.486.271c-.321-.222-.869-1.7-.717-4.223.129-2.153,1.993-20.967,27.306-32.911C94.731,35.836,94.717,35.931,94.7,36.024Zm15.358,27.205a1.822,1.822,0,0,1-1.173,1.44,1.876,1.876,0,0,1-1.589-.1,1.814,1.814,0,0,1-.923-1.254,19.233,19.233,0,0,0-2.433-6.242,1.814,1.814,0,0,1-.169-1.548,1.88,1.88,0,0,1,1.1-1.15,1.819,1.819,0,0,1,1.836.265A9.291,9.291,0,0,1,110.059,63.229Z" class="color452f4c svgShape"></path><ellipse cx="28.837" cy="62.612" fill="#87ddfd" rx="6.831" ry="7.794" transform="rotate(-72.517 28.837 62.612)" class="colorffe0d9 svgShape"></ellipse><ellipse cx="99.163" cy="62.612" fill="#87ddfd" rx="7.794" ry="6.831" transform="rotate(-17.483 99.162 62.614)" class="colorffe0d9 svgShape"></ellipse><path fill="#030303" d="M29.426 71.039a10.3 10.3 0 0 1-3.092-.481c-4.888-1.539-7.742-6.357-6.362-10.738s6.483-6.694 11.368-5.153a9.827 9.827 0 0 1 5.487 4.215 7.872 7.872 0 0 1 .875 6.523h0a7.873 7.873 0 0 1-4.455 4.844A9.482 9.482 0 0 1 29.426 71.039zM28.251 57.188a5.462 5.462 0 0 0-5.418 3.534c-.883 2.8 1.092 5.931 4.4 6.974a6.834 6.834 0 0 0 4.8-.194 4.91 4.91 0 0 0 2.8-3h0a4.91 4.91 0 0 0-.577-4.063 6.833 6.833 0 0 0-3.825-2.912A7.281 7.281 0 0 0 28.251 57.188zM98.574 71.039a9.482 9.482 0 0 1-3.821-.791 7.75 7.75 0 0 1-3.58-11.366 9.827 9.827 0 0 1 5.487-4.215c4.89-1.537 9.988.772 11.368 5.152s-1.474 9.2-6.362 10.739A10.3 10.3 0 0 1 98.574 71.039zm1.175-13.851a7.281 7.281 0 0 0-2.187.34 6.833 6.833 0 0 0-3.825 2.912A4.91 4.91 0 0 0 93.16 64.5h0a4.91 4.91 0 0 0 2.8 3 6.833 6.833 0 0 0 4.8.194c3.31-1.043 5.285-4.172 4.4-6.975A5.463 5.463 0 0 0 99.749 57.188z" class="color452f4c svgShape"></path></svg>