<svg xmlns="http://www.w3.org/2000/svg" viewBox="0 0 67 67" id="MentalHealth"><path fill="#87ddfd" d="M59.9 39.9h-1.1c-1.3 0-2.4 1.1-2.4 2.4v7.1c0 2.3-1.9 4.2-4.2 4.2h-3.6c-1.3 0-2.4 1.1-2.4 2.4v6.5c0 1.1-.9 2.1-2.1 2.1H25.5c-1.1 0-2-.8-2.1-1.9-.2-2.5-.9-4.9-2.1-7.1-1.4-2.8-3.4-5.2-5.9-7.1-6.1-4.8-10-12.2-10-20.5 0-7.1 2.9-13.4 7.5-18.1 4.6-4.6 11-7.5 18.1-7.5s13.3 3 18 7.6c4.6 4.6 7.5 11 7.5 18.1 0 .9.2 1.8.7 2.5l4.2 6.8c.7 1.1-.1 2.5-1.5 2.5z" class="colore2e1ff svgShape"></path><path fill="#3acaff" d="M49 23.7c-.1 10.1-14.7 18.7-17 20-.2.1-.4.1-.6 0-2.3-1.3-16.9-10.1-16.8-20.2 0-5.7 4.7-10.2 10.4-10.2 2.5 0 4.7 1.5 6.5 3 .2.2.6.2.8 0 1.8-1.5 4-3 6.5-3 5.6.1 10.3 4.7 10.2 10.4z" class="colorff3a73 svgShape"></path><path d="M4.4 28c0 8.3 3.8 16 10.5 21.1 2.4 1.8 4.3 4.2 5.7 6.8 1.1 2.1 1.7 4.4 2 6.8.2 1.6 1.5 2.8 3.1 2.8h18.8c1.7 0 3.1-1.4 3.1-3.1v-6.5c0-.7.6-1.4 1.4-1.4h3.6c2.8 0 5.2-2.3 5.2-5.2v-7.1c0-.7.6-1.4 1.4-1.4h1.1c2.1 0 3.4-2.3 2.3-4.1-3.7-6.3-4.8-7-4.8-8.8 0-14.7-11.9-26.5-26.5-26.5-15.1.1-26.9 12-26.9 26.6zm51 0c0 2.7 1.4 3.5 5.1 9.8.3.5 0 1.1-.6 1.1h-1.1c-1.8 0-3.4 1.5-3.4 3.4v7.1c0 1.7-1.4 3.2-3.2 3.2h-3.6c-1.8 0-3.4 1.5-3.4 3.4v6.5c0 .6-.5 1.1-1.1 1.1H25.5c-.6 0-1-.4-1.1-1-.2-2.6-1-5.1-2.2-7.5-1.4-2.9-3.6-5.5-6.2-7.5C9.9 42.9 6.4 35.7 6.4 28c0-13.6 11-24.5 24.5-24.5 13.6 0 24.5 11 24.5 24.5z" fill="#030303" class="color000000 svgShape"></path><path d="M13.6 23.5C13.6 34 28 42.9 31 44.5c.3.1.5.2.8.2.3 0 .5-.1.8-.2C35.4 42.9 50 34.2 50 23.7c0-6.2-5-11.3-11.3-11.4-2.2 0-4.5 1-6.9 3-2.4-2-4.7-3-6.9-3.1-6.2.1-11.3 5.1-11.3 11.3zm18.1 19.2c-1.8-1.1-10.3-6.3-14.2-12.8h6.1c.3 0 .5-.1.6-.3l2.5-3.7 2.5 7.6c.1.3.3.5.6.5h.1c.3 0 .5-.1.6-.4l6.3-10.1 2.5 6.4c.1.3.4.5.7.5h5.7c-4 6.4-12.2 11.3-14 12.3zm1.2-25.6c2.1-1.8 4.1-2.7 5.8-2.7 5.1 0 9.3 4.2 9.3 9.4 0 2-.7 3.9-1.7 5.8h-6.1l-2.6-6.7c-.1-.3-.3-.5-.6-.5s-.6.1-.7.4l-6.3 10-2.5-7.6c-.1-.3-.3-.5-.6-.5s-.6.1-.7.3l-2.7 4H17c-.9-1.7-1.4-3.5-1.4-5.4 0-5.1 4.2-9.2 9.4-9.2 1.8 0 3.8 1 5.9 2.8.5.4 1.4.4 2-.1z" fill="#030303" class="color000000 svgShape"></path></svg>