<svg xmlns="http://www.w3.org/2000/svg" viewBox="0 0 64 64" id="ImmuneSystem"><path fill="#2ba0cc" d="M19.56 53.96c-1.14-.82-2.12-1.59-2.97-2.37C1.68 38.08 4.3 14.04 5.46 7c.09-.57.43-1.04.94-1.3a1.805 1.805 0 0 1 1.67.01c2.85 1.45 5.86 2.33 8.95 2.61l1.1.1-.5.99c-.27.53-.54 1.04-.79 1.54-.53 1.01-1.07 2.06-1.49 3l-.26.57-.61-.15c-.71-.17-1.31-.35-1.86-.54-.19-.06-.38-.1-.58-.1-.35 0-.69.1-.98.3-.46.31-.75.81-.79 1.36-.41 6.53-.11 22.79 11.62 32.69l.38.32s-1.16 3.86-1.54 5.16l-.3 1.01-.86-.61zM32 59.46c-.16 0-.33-.02-.49-.05-.76-.16-2.82-.64-5.47-1.77l-.67-.28.26-.68c.27-.69.53-1.45.79-2.33.17-.56.36-1.17.57-1.82l.26-.81.77.36c.84.39 1.87.81 2.59 1.1a3.647 3.647 0 0 0 2.76 0c.72-.29 1.75-.71 2.59-1.1l.77-.35.27.8c.21.65.4 1.26.57 1.82.27.87.53 1.63.79 2.32l.26.68-.67.28c-2.65 1.13-4.71 1.62-5.47 1.77-.15.04-.32.06-.48.06z" class="color2b7ccc svgShape"></path><path fill="#87ddfd" d="m19.15 16.55.73-1.55.47-.01c1.97-.03 4.01-.29 6.05-.77l1.14-.27-.24 1.15c-.06.28-.09.56-.09.83 0 .53.1 1.05.31 1.56l.55 1.38-8.92-2.32zm2.22 31.1C10.13 37.7 9.86 21.78 10.26 15.4c.03-.56.32-1.05.79-1.36.29-.2.63-.3.98-.3.19 0 .39.03.57.09.49.17 1.02.32 1.68.49l.78.2-.25.76c-.28.84-.37 1.5-.28 2.03.12.69 1.41 2.81 10.86 7.7l.36.19.88 8.97-.05.15c-.54 1.58-2.48 7.98-3.99 12.98l-.34 1.12-.88-.77z" class="colorafc2f9 svgShape"></path><path fill="#64b9d8" d="M32 20.4c-2.64 0-4.78-2.01-4.78-4.47s2.15-4.47 4.78-4.47c2.64 0 4.78 2.01 4.78 4.47S34.64 20.4 32 20.4z" class="colord8646c svgShape"></path><path fill="#2ba0cc" d="M42.88 14.96c-2.1-.1-4.24-.43-6.35-1l-.28-.08-.16-.24c-.88-1.37-2.41-2.19-4.1-2.19-1.69 0-3.22.82-4.1 2.19l-.16.24-.28.08c-2.11.57-4.25.91-6.35 1l-1.24.06 3.27-6.93.38-.07c3.72-.67 6.47-1.98 7.78-2.7a1.46 1.46 0 0 1 1.4 0c1.31.72 4.06 2.03 7.77 2.7l.38.07 3.27 6.93-1.23-.06z" class="color2b7ccc svgShape"></path><path fill="#87ddfd" d="M36.48 17.49c.2-.51.31-1.03.31-1.56 0-.27-.03-.55-.09-.83l-.23-1.14 1.14.26c2.05.48 4.08.74 6.05.77l.46.01.73 1.55-8.92 2.32.55-1.38zM32 53.45c-.47 0-.94-.09-1.38-.27-1.15-.47-2.08-.86-2.75-1.18l-.6-.28.21-.63c1.29-3.88 2.95-8.51 3.82-10.93l.7-1.95.71 1.95c.88 2.42 2.54 7.06 3.82 10.93l.21.63-.61.28c-.67.32-1.6.72-2.75 1.18-.44.18-.91.27-1.38.27z" class="colorafc2f9 svgShape"></path><path fill="#2ba0cc" d="m41.88 48.87-.14-.47.38-.32c11.73-9.9 12.04-26.16 11.62-32.69-.04-.56-.32-1.05-.79-1.36-.3-.2-.64-.3-.98-.3-.2 0-.39.03-.58.1-.54.19-1.14.36-1.85.54l-.61.15-.26-.57c-.42-.95-.98-2.02-1.52-3.05-.25-.48-.51-.98-.77-1.49l-.5-.99 1.1-.1c3.08-.28 6.09-1.16 8.94-2.61.26-.13.56-.21.85-.21.28 0 .57.07.82.2.51.26.85.73.94 1.29 1.16 7.04 3.78 31.08-11.13 44.59-.86.77-1.83 1.55-2.97 2.37l-.86.61c.01.01-1.16-3.92-1.69-5.69z" class="color2b7ccc svgShape"></path><path fill="#64b9d8" d="M42.09 61.01c-1.7 0-3.13-2.12-4.52-6.66-1.6-5.26-5.15-14.98-5.54-16.04l-.03-.08h-.01c-.12.33-3.9 10.64-5.56 16.11C25.04 58.88 23.6 61 21.91 61c-.27 0-.49-.06-.62-.09-.69-.17-1.21-.39-1.51-.9-.31-.54-.5-1.53.45-4.79 1.3-4.48 5.74-19.19 6.4-21.06l-.88-8.97c-3.25-1.67-10.86-5.8-11.22-7.89-.25-1.47.93-3.74 2.29-6.36.47-.91.97-1.86 1.45-2.86C20.08 4.33 21.21 3 22.6 3c.29 0 .59.06.9.2.43.18.72.48.85.88.35 1.08-.5 2.59-.68 2.88l-4.52 9.59 9.35 2.43.14.13c.9.84 2.1 1.3 3.36 1.3 1.26 0 2.46-.46 3.36-1.3l.14-.13 9.35-2.43-4.6-9.73s-.97-1.62-.6-2.74c.13-.4.42-.7.85-.88.31-.13.61-.2.9-.2 1.39 0 2.52 1.33 4.33 5.09.47.98.96 1.92 1.43 2.81 1.38 2.65 2.57 4.93 2.31 6.41-.36 2.09-7.97 6.21-11.22 7.89l-.88 8.97c.66 1.87 5.1 16.58 6.4 21.06.95 3.26.76 4.25.45 4.79-.29.51-.82.73-1.52.9-.12.03-.34.09-.61.09z" class="colord8646c svgShape"></path><path fill="#87ddfd" d="M41.41 47.3c-1.5-5-3.45-11.4-3.99-12.98l-.05-.15.88-8.97.36-.19c9.45-4.9 10.74-7.02 10.86-7.7.09-.52 0-1.19-.28-2.03l-.25-.76.78-.2c.66-.17 1.19-.32 1.67-.49.19-.06.38-.1.58-.1.35 0 .69.1.98.3.46.31.75.81.79 1.36.4 6.38.13 22.3-11.11 32.25l-.88.78-.34-1.12z" class="colorafc2f9 svgShape"></path><path fill="#030303" d="M57.94 5.03c-.73-.37-1.61-.36-2.34.01-2.96 1.51-6.07 2.37-9.26 2.57-1.64-3.38-3.36-6.27-6.12-5.11-.64.26-1.08.73-1.28 1.34-.41 1.25.34 2.77.6 3.23-3.03-.68-5.3-1.77-6.47-2.41-.67-.37-1.47-.37-2.13 0-1.16.64-3.43 1.73-6.47 2.41.3-.54.99-2.01.6-3.23-.2-.61-.64-1.08-1.27-1.34-2.77-1.17-4.49 1.72-6.12 5.11-3.19-.21-6.3-1.06-9.26-2.57-.75-.37-1.63-.38-2.36-.01-.72.37-1.21 1.04-1.34 1.84C3.55 14.01.9 38.37 16.09 52.14c1.09.98 2.26 1.89 3.47 2.73-.01.05-.03.1-.04.14-.84 2.89-.94 4.39-.38 5.37.45.78 1.25 1.07 1.98 1.25.27.07.53.1.79.1 1.69 0 2.91-1.48 3.85-3.43 2.56 1.1 4.59 1.61 5.62 1.82a3.387 3.387 0 0 0 1.28 0c1.03-.21 3.06-.72 5.62-1.82.94 1.94 2.16 3.43 3.85 3.43.25 0 .51-.03.78-.1.73-.18 1.53-.47 1.98-1.25.56-.98.46-2.49-.38-5.37-.01-.04-.03-.1-.04-.14 1.21-.84 2.38-1.75 3.47-2.73C63.1 38.38 60.46 14.01 59.28 6.87c-.13-.8-.62-1.47-1.34-1.84zm-26.28.95c.22-.12.47-.12.68 0 1.38.76 4.22 2.1 8 2.78l2.57 5.45c-2.03-.09-4.1-.42-6.19-.98-.97-1.51-2.73-2.53-4.73-2.53s-3.76 1.02-4.73 2.53c-2.09.56-4.16.89-6.19.98l2.57-5.45c3.8-.68 6.64-2.02 8.02-2.78zm5.77 8.97c2.09.49 4.17.75 6.21.79l.15.31-6.61 1.72c.23-.57.36-1.19.36-1.84-.01-.33-.04-.66-.11-.98zm-1.4.98c0 2.05-1.81 3.72-4.03 3.72s-4.03-1.67-4.03-3.72 1.81-3.72 4.03-3.72 4.03 1.67 4.03 3.72zm-9.2 1.84-6.61-1.72.15-.31c2.03-.04 4.11-.3 6.21-.79-.06.32-.1.64-.1.98-.01.65.12 1.27.35 1.84zm-9.74 33.26C2.47 37.77 5.06 14.07 6.2 7.12a1 1 0 0 1 .54-.75c.31-.16.67-.15.99.01 2.95 1.5 6.05 2.4 9.22 2.69-.27.53-.53 1.04-.79 1.54-.57 1.1-1.1 2.11-1.51 3.03-.61-.15-1.21-.32-1.79-.52a2.5 2.5 0 0 0-2.22.29 2.51 2.51 0 0 0-1.12 1.94c-.42 6.69-.09 23.2 11.89 33.31-.53 1.76-1.01 3.39-1.4 4.69-1.02-.72-2-1.49-2.92-2.32zm-3.3-33.59c.3 1.75 4.09 4.53 11.25 8.24l.82 8.4c-.52 1.52-2.37 7.59-4 13.01-10.96-9.71-11.25-25.28-10.85-31.65.02-.32.19-.61.45-.79.27-.18.6-.22.9-.12.56.19 1.14.36 1.73.51-.29.9-.42 1.69-.3 2.4zm18.55 41.23c-.22.05-.45.05-.67 0-.78-.16-2.79-.64-5.33-1.73.3-.78.57-1.59.81-2.38.17-.56.36-1.17.57-1.81.82.38 1.83.8 2.62 1.12.54.22 1.1.32 1.66.32.56 0 1.13-.11 1.66-.32.8-.32 1.8-.74 2.62-1.12.21.64.4 1.25.57 1.81.24.79.51 1.6.81 2.38-2.53 1.09-4.54 1.57-5.32 1.73zm-4.15-7.35c1.27-3.83 2.9-8.38 3.81-10.91.91 2.53 2.54 7.08 3.81 10.91-.81.38-1.88.83-2.71 1.16-.71.29-1.49.29-2.2 0-.84-.33-1.9-.77-2.71-1.16zm15.38 8.33c-.12.2-.34.37-1.05.55-.6.16-2.21.56-4.24-6.06-1.7-5.59-5.54-16.07-5.58-16.17 0-.01-.01-.02-.02-.03-.02-.05-.05-.09-.08-.13-.03-.04-.05-.08-.08-.11s-.07-.05-.11-.08c-.04-.03-.08-.06-.13-.08-.01 0-.02-.01-.03-.02-.04-.01-.07-.01-.11-.02-.05-.01-.1-.02-.15-.02-.06 0-.11.01-.17.03-.03.01-.06 0-.09.01-.01 0-.01.01-.02.01-.05.02-.1.06-.14.09-.03.02-.07.04-.1.07-.03.03-.05.07-.08.11-.03.04-.06.08-.08.13 0 .01-.01.02-.02.03-.04.1-3.89 10.58-5.58 16.17-2.02 6.62-3.63 6.22-4.24 6.06-.7-.17-.93-.34-1.04-.55-.31-.54-.14-1.92.52-4.21 1.3-4.48 5.73-19.16 6.39-21.02.04-.1.05-.21.04-.32l-.88-8.97a.74.74 0 0 0-.4-.59c-7.25-3.73-10.66-6.38-10.82-7.35-.21-1.22.97-3.49 2.22-5.88.47-.91.98-1.88 1.46-2.88 2.13-4.42 3.14-5 4.27-4.52.3.12.38.29.42.42.19.6-.24 1.66-.6 2.26l-4.56 9.66c-.1.2-.1.44 0 .64s.27.35.49.41l9.17 2.38c1 .93 2.36 1.5 3.87 1.5 1.51 0 2.87-.57 3.87-1.5l9.17-2.38c.22-.06.4-.21.49-.41s.09-.44 0-.64l-4.6-9.73c-.27-.44-.77-1.56-.57-2.19.04-.13.13-.29.43-.42 1.12-.47 2.13.11 4.26 4.53.48.99.97 1.93 1.44 2.83 1.26 2.42 2.45 4.71 2.24 5.94-.17.97-3.58 3.62-10.82 7.35-.23.12-.38.34-.4.59l-.88 8.97c-.01.11 0 .22.04.32.66 1.86 5.09 16.54 6.39 21.02.63 2.28.8 3.65.49 4.2zm6.34-44.6c.59-.15 1.17-.31 1.73-.51a1.025 1.025 0 0 1 1.35.91c.4 6.36.11 21.94-10.86 31.64-1.63-5.42-3.48-11.49-4-13.01l.82-8.4c7.17-3.71 10.95-6.49 11.25-8.24.13-.71 0-1.5-.29-2.39zm-3 35.98c-.92.83-1.9 1.59-2.91 2.32-.38-1.3-.87-2.93-1.4-4.69 11.97-10.11 12.31-26.62 11.89-33.31a2.51 2.51 0 0 0-1.12-1.94 2.5 2.5 0 0 0-2.22-.29c-.58.2-1.18.37-1.79.52-.42-.94-.95-1.97-1.54-3.09l-.77-1.48c3.17-.29 6.27-1.19 9.22-2.69.32-.16.68-.17.98-.01a1 1 0 0 1 .54.75c1.15 6.95 3.74 30.65-10.88 43.91z" class="color161616 svgShape"></path></svg>