<svg xmlns="http://www.w3.org/2000/svg" viewBox="0 0 512 512" id="Endocrinology"><path fill="#87ddfd" d="m402.393 115.556-10.486-17.03c-50.108 30.855-111.112 26.877-136.093 23.509V7.523h-49.873v121.21c-51.417 4.903-73.281-7.31-73.512-7.444l.104.063-10.448 17.054c.838.514 8.66 5.113 24.816 8.329 10.749 2.14 22.585 3.209 35.416 3.209 7.538 0 15.419-.37 23.624-1.109v355.759h49.873v-362.31c8.773 1.125 20.67 2.177 34.51 2.177 31.963 0 74.244-5.613 112.069-28.905z" class="color68c0e0 svgShape"></path><path fill="#3283a1" d="M205.94 7.523h23.309v496.835H205.94z" class="color3282a1 svgShape"></path><path fill="#4fb9e1" d="M361.704 155.136c24.647-18.197 42.916-47.1 43.925-48.713L388.67 95.821c-7.751 12.4-32.556 45.291-56.165 52.563-9.436-1.63-18.508-2.736-26.656-3.482V7.524h-49.873v145.328c-12.949-.101-32.401.515-53.913 3.825-40.812 3.764-86.496-30.627-86.96-30.98l-12.141 15.893c1.383 1.058 22.739 17.18 50.79 27.289-19.074 7.111-37.284 17.278-51.787 31.781l14.143 14.143c37.99-37.991 109.241-42.025 139.869-41.881v331.436h49.873V165.027a329.224 329.224 0 0 1 17.082 2.086c35.339 5.288 61.444 15.508 75.492 29.557l14.143-14.142c-12.919-12.917-31.448-21.581-50.863-27.392z" class="colore15f4f svgShape"></path><path fill="#808080" d="M255.976 7.524h23.309v496.834h-23.309z" class="colorca4336 svgShape"></path><path fill="#4fb9e1" d="M372.798 173.98c9.137-14.641 1.789-30.282-5.122-43.925-9.146-18.058-10.407-38.898-1.724-57.459 17.994-38.463 69.921-48.453 100.955-19.62 30.744 28.563 41.008 83.89 36.59 123.504-4.751 42.599-28.422 96.459-78.676 94.963-48.278-1.437-77.615-56.6-52.023-97.463z" class="colore15f4f svgShape"></path><path fill="#808080" d="M396.149 173.98c9.137-14.641 1.789-30.282-5.122-43.925-9.146-18.058-10.407-38.898-1.724-57.459 9.13-19.517 26.999-31.696 46.44-35.199-27.302-4.987-57.051 7.967-69.791 35.199-8.683 18.561-7.423 39.4 1.724 57.459 6.91 13.643 14.259 29.284 5.122 43.925-25.593 40.863 3.745 96.026 52.023 97.463 4.812.143 9.379-.225 13.71-1.039-42.395-7.898-66.221-58.361-42.382-96.424z" class="colorca4336 svgShape"></path><path fill="#808080" d="M399.957 153.908a31.02 31.02 0 0 1 3.882-15.072c2.518-4.549 3.999-9.598 3.999-14.797v-1.321c-17.226 0-31.19 13.964-31.19 31.19s13.964 31.19 31.19 31.19v-1.321c0-5.199-1.481-10.248-3.999-14.797a31.02 31.02 0 0 1-3.882-15.072z" class="colorca4336 svgShape"></path><path fill="#4fb9e1" d="M139.202 173.98c-9.137-14.641-1.789-30.282 5.122-43.925 9.146-18.058 10.407-38.898 1.724-57.459-17.994-38.463-69.921-48.453-100.955-19.62C14.348 81.539 4.084 136.866 8.502 176.48c4.751 42.599 28.422 96.459 78.676 94.963 48.279-1.437 77.616-56.6 52.024-97.463z" class="colore15f4f svgShape"></path><path fill="#808080" d="M31.811 176.48c-4.419-39.614 5.845-94.941 36.59-123.504 9.067-8.424 19.918-13.528 31.185-15.582-18.867-3.393-39.212 1.385-54.493 15.582C14.348 81.539 4.084 136.866 8.502 176.48c4.751 42.599 28.422 96.459 78.676 94.963 3.3-.098 6.507-.456 9.619-1.034-40.916-7.669-60.689-55.403-64.986-93.929z" class="colorca4336 svgShape"></path><circle cx="256" cy="344.516" r="88.668" fill="#ffffff" class="colorffffff svgShape"></circle><path fill="#c6cbcd" d="M190.617 344.516c0-45.023 33.558-82.205 77.026-87.907a89.44 89.44 0 0 0-11.642-.761c-48.97 0-88.668 39.698-88.668 88.668 0 48.97 39.698 88.668 88.668 88.668 3.947 0 7.832-.261 11.642-.761-43.468-5.702-77.026-42.884-77.026-87.907z" class="colorcdcdc6 svgShape"></path><path fill="#484848" d="M319.758 356.403v-23.774h-13.916a51.01 51.01 0 0 0-6.182-14.962l9.829-9.829-16.811-16.811-9.809 9.809a51.005 51.005 0 0 0-14.982-6.231v-13.847h-23.774v13.805a51.01 51.01 0 0 0-15.052 6.202l-9.739-9.739-16.811 16.811 9.72 9.72a51.023 51.023 0 0 0-6.252 15.072h-13.737v23.774h13.737a51.008 51.008 0 0 0 6.252 15.072l-9.72 9.72 16.811 16.811 9.739-9.739a51.01 51.01 0 0 0 15.052 6.202v13.806h23.774v-13.847a51.005 51.005 0 0 0 14.982-6.231l9.809 9.809 16.811-16.811-9.829-9.829a51.038 51.038 0 0 0 6.182-14.962h13.916zM256 368.239c-13.102 0-23.723-10.621-23.723-23.723 0-13.102 10.621-23.723 23.723-23.723 13.102 0 23.723 10.621 23.723 23.723 0 13.102-10.621 23.723-23.723 23.723z" class="color494a47 svgShape"></path><path d="M503.226 109.316c-6.666-25.442-18.048-46.191-32.914-60.003-16.004-14.868-37.794-20.939-59.791-16.658-21.957 4.275-39.852 18.061-49.097 37.822-5.704 12.193-7.523 25.7-5.523 39.055-15.373 5-30.811 7.646-45.052 8.865V7.522a5 5 0 0 0-5-5h-49.873c-.028 0-.053.008-.081.008-.028 0-.053-.008-.081-.008h-49.873a5 5 0 0 0-5 5v116.625c-20.535 1.597-36.613.337-48.001-1.745 5.924-17.345 5.187-35.785-2.364-51.925-9.245-19.762-27.14-33.548-49.098-37.822-21.991-4.283-43.786 1.79-59.79 16.658C26.822 63.125 15.44 83.874 8.774 109.316c-5.787 22.088-7.648 46.138-5.241 67.719 5.557 49.822 32.924 99.439 81.633 99.438.715 0 1.437-.011 2.161-.032 24.448-.729 46.109-14.385 57.943-36.53 7.41-13.867 9.921-29.084 7.587-43.615 15.369-6.876 32.165-11.235 48.084-13.967v86.46c-23.382 17.047-38.609 44.64-38.609 75.727s15.227 58.679 38.609 75.727v84.114a5 5 0 0 0 5 5h49.873c.028 0 .053-.008.081-.008.028 0 .053.008.081.008h49.873a5 5 0 0 0 5-5v-83.961c23.501-17.035 38.819-44.7 38.819-75.88s-15.318-58.846-38.819-75.881v-98.06c3.869.436 7.666.932 11.342 1.482 15.66 2.343 29.399 5.652 40.984 9.819-7.496 18.511-6.359 39.479 3.557 58.035 11.833 22.146 33.494 35.801 57.942 36.529.727.021 1.442.032 2.16.032 48.702-.005 76.077-49.619 81.634-99.439 2.406-21.579.545-45.629-5.242-67.717zm-145.149 9.993a75.048 75.048 0 0 0 1.511 4.615c-2.815 2.808-5.751 5.512-8.755 7.999-14.006 3.695-27.624 5.72-39.985 6.713v-10.218c14.869-1.225 31.047-3.944 47.229-9.109zm-151.661 14.402a5 5 0 0 0 4.525-4.978V12.522h39.873v9.996c.056.036.107.079.162.116V147.85c-10.541.075-24.526.66-40.035 2.559v-1.573c0-1.404-.59-2.743-1.626-3.69a4.977 4.977 0 0 0-3.822-1.289c-8.024.722-15.822 1.088-23.175 1.088-8.951 0-17.434-.548-25.35-1.615a171.174 171.174 0 0 1-11.129-5.003 218.657 218.657 0 0 1 2.946-6.012c.082-.161.15-.326.231-.487 13.258 2.655 32.497 4.258 57.4 1.883zM136.45 235.198c-10.124 18.946-28.599 30.627-49.421 31.247-.634.02-1.259.028-1.884.028-48.543-.003-67.895-56.663-71.674-90.548-4.357-39.06 6.275-92.576 35.025-119.285 10.761-9.998 24.621-15.321 39.238-15.321 3.905 0 7.866.38 11.834 1.152 18.785 3.657 34.075 15.41 41.951 32.245 7.699 16.456 7.095 35.803-1.656 53.08-1.304 2.575-2.745 5.426-4.116 8.477-6.199-11.059-18.031-18.554-31.585-18.554a5 5 0 1 0 0 10c14.371 0 26.072 11.636 26.184 25.982a40.233 40.233 0 0 0-.373 4.613c-2.102 12.35-12.872 21.784-25.812 21.784a5 5 0 1 0 0 10c12.254 0 23.098-6.128 29.648-15.475.358.669.734 1.338 1.15 2.004l.004.007c11.077 17.684 11.633 39.578 1.487 58.564zm74.491-54.401c15.524-2.096 29.658-2.748 40.035-2.86v73.047a93.014 93.014 0 0 0-40.035 11.437v-81.624zm0 318.56v-72.746a93.007 93.007 0 0 0 39.873 11.426v61.32h-39.873zm89.908 0h-39.872v-61.306a93.006 93.006 0 0 0 39.872-11.322v72.628zm38.819-154.84c0 46.134-37.533 83.667-83.668 83.667s-83.668-37.533-83.668-83.667c0-46.135 37.533-83.668 83.668-83.668s83.668 37.533 83.668 83.668zm-15.997-182.349a333.98 333.98 0 0 0-17.343-2.117 5 5 0 0 0-5.48 4.976v97.276a93.011 93.011 0 0 0-39.872-11.323v-78.059a5 5 0 0 0-4.977-5c-21.857-.104-67.23 1.983-105.513 18.535a66.948 66.948 0 0 0-3.801-9.336 179.013 179.013 0 0 1 8.813-3.557 5.002 5.002 0 0 0-.052-9.389c-5.392-1.943-10.522-4.119-15.309-6.366a36.36 36.36 0 0 0 .202-3.465c.359-2.215.947-4.468 1.71-6.761 17.121 8.331 39.325 16.027 60.472 14.072.101-.009.201-.021.301-.037 21.376-3.287 40.69-3.863 53.114-3.767h.039a5 5 0 0 0 5.001-5V12.522h39.872v132.38a5 5 0 0 0 4.544 4.979c9.05.828 17.885 1.982 26.261 3.43.775.134 1.57.083 2.323-.148 9.286-2.86 19.335-9.408 29.94-19.459 1.629 3.252 3.14 6.425 4.41 9.527-3.061 2.765-6.266 5.427-9.592 7.882a5 5 0 0 0 1.536 8.813 181.09 181.09 0 0 1 11.333 3.803c-.518 2.584-1.496 5.117-3.047 7.603a65.758 65.758 0 0 0-.94 1.559c-12.494-4.607-27.231-8.222-43.945-10.723zm174.858 13.758c-3.78 33.887-23.126 90.553-71.676 90.548-.621 0-1.253-.01-1.884-.028-20.821-.62-39.296-12.301-49.42-31.246-10.146-18.987-9.59-40.881 1.486-58.565l.005-.007a34.34 34.34 0 0 0 1.15-2.003c6.55 9.346 17.394 15.474 29.648 15.474 2.762 0 5-2.238 5-5s-2.238-5-5-5c-12.938 0-23.708-9.432-25.812-21.779a40.183 40.183 0 0 0-.374-4.622c.114-14.344 11.814-25.979 26.185-25.979 2.762 0 5-2.238 5-5s-2.238-5-5-5c-13.555 0-25.386 7.495-31.586 18.554-1.37-3.051-2.811-5.901-4.115-8.476-8.751-17.278-9.354-36.625-1.655-53.081 7.875-16.835 23.165-28.588 41.949-32.245a61.977 61.977 0 0 1 11.835-1.152c14.616 0 28.478 5.324 39.238 15.321 28.751 26.709 39.382 80.225 35.026 119.286z" fill="#030303" class="color000000 svgShape"></path><path d="M239.113 280.759v9.989a55.95 55.95 0 0 0-9.205 3.794l-7.05-7.05a5 5 0 0 0-7.071 0l-16.811 16.811a4.998 4.998 0 0 0 0 7.07l7.023 7.024a55.879 55.879 0 0 0-3.828 9.231h-9.929a5 5 0 0 0-5 5v23.774a5 5 0 0 0 5 5h9.929c1 3.188 2.279 6.275 3.828 9.231l-7.023 7.024a4.998 4.998 0 0 0 0 7.07l16.811 16.811a5 5 0 0 0 7.071 0l7.05-7.05a55.95 55.95 0 0 0 9.205 3.794v9.989a5 5 0 0 0 5 5h23.774a5 5 0 0 0 5-5v-10.046a55.985 55.985 0 0 0 9.143-3.8l7.113 7.112a4.998 4.998 0 0 0 7.07 0l16.812-16.81a5.001 5.001 0 0 0 0-7.071l-7.14-7.141a55.915 55.915 0 0 0 3.766-9.115h10.107a5 5 0 0 0 5-5v-23.774a5 5 0 0 0-5-5H309.65a55.863 55.863 0 0 0-3.766-9.115l7.14-7.141a4.999 4.999 0 0 0 0-7.07l-16.812-16.811a4.998 4.998 0 0 0-7.07 0l-7.113 7.112a55.948 55.948 0 0 0-9.143-3.8v-10.046a5 5 0 0 0-5-5h-23.774a5.006 5.006 0 0 0-4.999 5.004zm10 13.804v-8.805h13.774v8.847a5 5 0 0 0 3.837 4.863 45.964 45.964 0 0 1 13.516 5.62 5 5 0 0 0 6.165-.718l6.273-6.272 9.74 9.739-6.293 6.294a4.998 4.998 0 0 0-.724 6.154 45.993 45.993 0 0 1 5.575 13.496 5 5 0 0 0 4.865 3.847h8.916v13.774h-8.916a5 5 0 0 0-4.865 3.847 45.943 45.943 0 0 1-5.575 13.495 4.998 4.998 0 0 0 .724 6.155l6.293 6.294-9.74 9.739-6.273-6.272a5.001 5.001 0 0 0-6.165-.718 45.938 45.938 0 0 1-13.516 5.62 5 5 0 0 0-3.837 4.863v8.847h-13.774v-8.805a5 5 0 0 0-3.854-4.867 45.986 45.986 0 0 1-13.578-5.595 4.998 4.998 0 0 0-6.155.724l-6.204 6.203-9.74-9.739 6.184-6.185a5 5 0 0 0 .717-6.165 45.955 45.955 0 0 1-5.639-13.596 5 5 0 0 0-4.865-3.846h-8.737v-13.774h8.737a5 5 0 0 0 4.865-3.846 45.966 45.966 0 0 1 5.639-13.596 5 5 0 0 0-.717-6.165l-6.184-6.185 9.74-9.739 6.204 6.203a4.998 4.998 0 0 0 6.155.724 45.975 45.975 0 0 1 13.578-5.595 4.995 4.995 0 0 0 3.854-4.865z" fill="#030303" class="color000000 svgShape"></path><path d="M256 373.239c15.838 0 28.724-12.885 28.724-28.723S271.838 315.793 256 315.793s-28.723 12.886-28.723 28.724 12.885 28.722 28.723 28.722zm0-47.446c10.324 0 18.724 8.399 18.724 18.724 0 10.323-8.399 18.723-18.724 18.723-10.324 0-18.723-8.399-18.723-18.723 0-10.325 8.399-18.724 18.723-18.724z" fill="#030303" class="color000000 svgShape"></path></svg>